<svg xmlns="http://www.w3.org/2000/svg" viewBox="0 0 64 64" fill="none" aria-hidden="true">
  <!-- Background circle -->
  <circle cx="32" cy="32" r="28" fill="#EFF6FF"/>
  <!-- Three flowing waves representing emotional flow -->
  <path d="M10 30 C16 22 22 38 32 30 C42 22 48 38 54 30" stroke="#3B82F6" stroke-width="3" stroke-linecap="round" fill="none"/>
  <path d="M10 38 C16 30 22 46 32 38 C42 30 48 46 54 38" stroke="#3B82F6" stroke-width="2.5" stroke-linecap="round" fill="none" opacity="0.6"/>
  <path d="M10 46 C16 38 22 54 32 46 C42 38 48 54 54 46" stroke="#3B82F6" stroke-width="2" stroke-linecap="round" fill="none" opacity="0.35"/>
  <!-- Heart above waves -->
  <path d="M32 20 C32 20 26 14 26 18 C26 22 32 26 32 26 C32 26 38 22 38 18 C38 14 32 20 32 20Z" fill="#3B82F6"/>
</svg>
