<svg xmlns="http://www.w3.org/2000/svg" viewBox="0 0 64 64" fill="none" aria-hidden="true">
  <!-- Circle background -->
  <circle cx="32" cy="32" r="27" fill="#EDE9FE" stroke="#7C3AED" stroke-width="2.5"/>
  <!-- Large centre star -->
  <polygon points="32,14 35.5,24 46,24 38,30.5 41,41 32,35 23,41 26,30.5 18,24 28.5,24" fill="#7C3AED"/>
  <!-- Small sparkle top-right -->
  <polygon points="46,10 47.2,13.5 51,13.5 48,15.7 49.2,19.5 46,17.3 42.8,19.5 44,15.7 41,13.5 44.8,13.5" fill="#A78BFA" opacity="0.85"/>
  <!-- Small sparkle bottom-left -->
  <polygon points="18,44 19.2,47.5 23,47.5 20,49.7 21.2,53.5 18,51.3 14.8,53.5 16,49.7 13,47.5 16.8,47.5" fill="#A78BFA" opacity="0.7"/>
</svg>
