<svg xmlns="http://www.w3.org/2000/svg" viewBox="0 0 64 64" fill="none" aria-hidden="true">
  <!-- Background -->
  <circle cx="32" cy="32" r="30" fill="#EEF3FE"/>
  <!-- Open book left page -->
  <rect x="8" y="16" width="20" height="30" rx="2" fill="#fff" stroke="#4A7CF7" stroke-width="2.5"/>
  <!-- Open book right page -->
  <rect x="36" y="16" width="20" height="30" rx="2" fill="#fff" stroke="#4A7CF7" stroke-width="2.5"/>
  <!-- Book spine -->
  <line x1="28" y1="16" x2="28" y2="46" stroke="#4A7CF7" stroke-width="1.5"/>
  <line x1="36" y1="16" x2="36" y2="46" stroke="#4A7CF7" stroke-width="1.5"/>
  <!-- Narrative wave lines on left page -->
  <path d="M12 25 C15 23 18 27 21 25" stroke="#4A7CF7" stroke-width="2" stroke-linecap="round" fill="none"/>
  <path d="M12 31 C15 29 18 33 21 31" stroke="#4A7CF7" stroke-width="2" stroke-linecap="round" fill="none"/>
  <path d="M12 37 C15 35 18 37 20 37" stroke="#4A7CF7" stroke-width="2" stroke-linecap="round" fill="none"/>
  <!-- Narrative wave lines on right page -->
  <path d="M40 25 C43 23 46 27 51 25" stroke="#4A7CF7" stroke-width="2" stroke-linecap="round" fill="none"/>
  <path d="M40 31 C43 29 46 33 51 31" stroke="#4A7CF7" stroke-width="2" stroke-linecap="round" fill="none"/>
  <path d="M40 37 C43 35 46 37 48 37" stroke="#4A7CF7" stroke-width="2" stroke-linecap="round" fill="none"/>
</svg>
