<svg xmlns="http://www.w3.org/2000/svg" viewBox="0 0 64 64" fill="none" aria-hidden="true">
  <path d="M32 8 C32 8 46 20 46 34 C46 43 40 50 32 52 C24 50 18 43 18 34 C18 24 26 18 26 18 C26 18 24 28 30 30 C30 30 28 22 36 18 C36 18 34 28 40 32 C40 38 37 44 32 46 C27 44 24 38 24 34 C24 30 28 28 28 28 C28 28 26 38 34 38 C38 38 40 34 38 30 C42 24 32 8 32 8Z" fill="#FED7AA" stroke="#F97316" stroke-width="1.5" stroke-linejoin="round"/>
  <path d="M32 30 C32 30 36 34 34 40 C32 44 28 44 28 44 C28 44 34 44 36 38 C38 34 32 30 32 30Z" fill="#F97316"/>
</svg>
