<svg xmlns="http://www.w3.org/2000/svg" viewBox="0 0 1024 1024" fill="none">
  <defs>
    <!-- Disc -->
    <radialGradient id="disc" cx="0" cy="0" r="1" gradientUnits="userSpaceOnUse"
      gradientTransform="translate(512 520) rotate(90) scale(320)">
      <stop offset="0" stop-color="#19C6C6" stop-opacity="0.22"/>
      <stop offset="1" stop-color="#19C6C6" stop-opacity="0.035"/>
    </radialGradient>

    <!-- Primary ring / strokes -->
    <linearGradient id="ring" x1="220" y1="240" x2="804" y2="820" gradientUnits="userSpaceOnUse">
      <stop offset="0" stop-color="#74BCFF"/>
      <stop offset="0.55" stop-color="#2F6FED"/>
      <stop offset="1" stop-color="#1B2A7A"/>
    </linearGradient>

    <!-- Hex-web stroke -->
    <linearGradient id="web" x1="340" y1="340" x2="684" y2="684" gradientUnits="userSpaceOnUse">
      <stop offset="0" stop-color="#32E0D6" stop-opacity="1"/>
      <stop offset="1" stop-color="#3D7BFF" stop-opacity="1"/>
    </linearGradient>

    <!-- Needle -->
    <linearGradient id="needle" x1="512" y1="250" x2="512" y2="800" gradientUnits="userSpaceOnUse">
      <stop offset="0" stop-color="#B5E3FF"/>
      <stop offset="0.45" stop-color="#3D7BFF"/>
      <stop offset="1" stop-color="#0D1B2A"/>
    </linearGradient>

    <!-- Hub -->
    <radialGradient id="hub" cx="0" cy="0" r="1" gradientUnits="userSpaceOnUse"
      gradientTransform="translate(512 540) rotate(90) scale(36)">
      <stop offset="0" stop-color="#F2FBFF" stop-opacity="0.98"/>
      <stop offset="0.45" stop-color="#6FB7FF" stop-opacity="0.98"/>
      <stop offset="1" stop-color="#0D1B2A" stop-opacity="0.98"/>
    </radialGradient>

    <!-- Shadows -->
    <filter id="shadow" x="-20%" y="-20%" width="140%" height="140%">
      <feDropShadow dx="0" dy="10" stdDeviation="10" flood-color="#0D1B2A" flood-opacity="0.22"/>
    </filter>

    <!-- Web glow -->
    <filter id="webGlow" x="-40%" y="-40%" width="180%" height="180%">
      <feGaussianBlur stdDeviation="2.8" result="b"/>
      <feColorMatrix in="b" type="matrix"
        values="1 0 0 0 0
                0 1 0 0 0
                0 0 1 0 0
                0 0 0 0.55 0" result="g"/>
      <feMerge>
        <feMergeNode in="g"/>
        <feMergeNode in="SourceGraphic"/>
      </feMerge>
    </filter>

    <!-- Node glow -->
    <filter id="nodeGlow" x="-50%" y="-50%" width="200%" height="200%">
      <feGaussianBlur stdDeviation="2.6" result="b"/>
      <feMerge>
        <feMergeNode in="b"/>
        <feMergeNode in="SourceGraphic"/>
      </feMerge>
    </filter>
  </defs>

  <!-- Subtle inner disc -->
  <circle cx="512" cy="520" r="300" fill="url(#disc)"/>

  <!-- Thick outer ring -->
  <circle cx="512" cy="520" r="330" stroke="url(#ring)" stroke-width="22"/>

  <!-- Two swirls/orbits -->
  <g stroke="url(#ring)" stroke-width="14" opacity="0.85">
    <ellipse cx="512" cy="520" rx="390" ry="170" transform="rotate(-22 512 520)"/>
    <ellipse cx="512" cy="520" rx="370" ry="210" transform="rotate(33 512 520)"/>
  </g>

  <!-- Brighter hex compass web -->
  <g filter="url(#webGlow)" stroke="url(#web)" stroke-linecap="round" stroke-linejoin="round">
    <!-- Outer hex -->
    <path d="M512 300 L702 410 L702 630 L512 740 L322 630 L322 410 Z"
          stroke-width="10" opacity="0.85"/>
    <!-- Inner hex -->
    <path d="M512 380 L634 450 L634 590 L512 660 L390 590 L390 450 Z"
          stroke-width="9" opacity="0.78"/>
    <!-- Spokes -->
    <path d="M512 300 L512 740" stroke-width="9" opacity="0.72"/>
    <path d="M322 410 L702 630" stroke-width="9" opacity="0.62"/>
    <path d="M702 410 L322 630" stroke-width="9" opacity="0.62"/>

    <!-- Inner-to-outer connectors -->
    <g stroke-width="7" opacity="0.55">
      <path d="M512 380 L512 300"/>
      <path d="M634 450 L702 410"/>
      <path d="M634 590 L702 630"/>
      <path d="M512 660 L512 740"/>
      <path d="M390 590 L322 630"/>
      <path d="M390 450 L322 410"/>
    </g>
  </g>

  <!-- Nodes -->
  <g filter="url(#nodeGlow)" opacity="0.95">
    <circle cx="512" cy="300" r="15" fill="url(#ring)"/>
    <circle cx="702" cy="410" r="15" fill="url(#ring)"/>
    <circle cx="702" cy="630" r="15" fill="url(#ring)"/>
    <circle cx="512" cy="740" r="15" fill="url(#ring)"/>
    <circle cx="322" cy="630" r="15" fill="url(#ring)"/>
    <circle cx="322" cy="410" r="15" fill="url(#ring)"/>
  </g>

  <!-- Needle + hub (3D) -->
  <g filter="url(#shadow)">
    <path d="
      M512 255
      C538 310 552 375 552 520
      C552 665 538 730 512 785
      C486 730 472 665 472 520
      C472 375 486 310 512 255 Z"
      fill="url(#needle)"/>
    <circle cx="512" cy="540" r="34" fill="url(#hub)"/>
  </g>
</svg>
